<?xml version="1.0" encoding="UTF-8"?>
<svg width="293px" height="293px" viewBox="0 0 293 293" version="1.1" xmlns="http://www.w3.org/2000/svg" xmlns:xlink="http://www.w3.org/1999/xlink">
    <!-- Generator: Sketch 52.2 (67145) - http://www.bohemiancoding.com/sketch -->
    <title>Slice</title>
    <desc>Created with Sketch.</desc>
    <g id="Page-1" stroke="none" stroke-width="1" fill="none" fill-rule="evenodd" stroke-linejoin="round">
        <path d="M107.0871,55.595 C107.0871,45.1314 115.5156,36.6516 125.9093,36.6516 C136.3037,36.6516 144.7281,45.1329 144.7281,55.595 C144.7281,66.0553 136.3027,74.5349 125.9093,74.5349 C115.5166,74.5349 107.0871,66.0568 107.0871,55.595 Z M142.1432,245.898 C142.1432,268.549 128.0161,287.469 100.1312,286.991 C72.2462,286.513 58,268.549 58,245.898 L58,241.714 L90.9254,241.714 L90.9254,245.898 C90.9254,248.747 92.191,255.163 100.1312,255.163 C108.0714,255.163 109.3009,248.747 109.2864,245.898 L109.3376,95.0282 L166.857,95.0282 L166.857,55.1022 C166.857,32.4509 180.984,13.530809 208.869,14.0088656 C236.754,14.486908 251,32.4509 251,55.1022 L251,59.2861 L218.075,59.2861 L218.075,55.1022 C218.075,52.2534 216.809,45.8365 208.869,45.8365 C200.929,45.8365 199.699,52.2534 199.714,55.1022 L199.662,95.0282 L218.332,95.0282 L218.332,128.36 L199.662,128.36 L199.662,251.865 L166.857,251.865 L166.857,128.36 L142.1431,128.36 L142.1432,245.898 Z" id="Shape-Copy" stroke="#000000" stroke-width="5" fill="#000000"></path>
        <g id="Union-2" transform="translate(50.000000, 6.000000)" fill="#FFFFFF" stroke="#000000" stroke-width="5">
            <path d="M49.0871,41.595 C49.0871,31.1314 57.5156,22.6516 67.9093,22.6516 C78.3037,22.6516 86.7281,31.1329 86.7281,41.595 C86.7281,52.0553 78.3027,60.5349 67.9093,60.5349 C57.5166,60.5349 49.0871,52.0568 49.0871,41.595 Z M84.1432,231.898 C84.1432,254.549 70.0161,273.469 42.1312,272.991 C14.2462,272.513 0,254.549 0,231.898 L0,227.714 L32.9254,227.714 L32.9254,231.898 C32.9254,234.747 34.191,241.163 42.1312,241.163 C50.0714,241.163 51.3009,234.747 51.2864,231.898 L51.3376,81.0282 L108.857,81.0282 L108.857,41.1022 C108.857,18.4509 122.984,-0.469191015 150.869,0.00886561452 C178.754,0.486907985 193,18.4509 193,41.1022 L193,45.2861 L160.075,45.2861 L160.075,41.1022 C160.075,38.2534 158.809,31.8365 150.869,31.8365 C142.929,31.8365 141.699,38.2534 141.714,41.1022 L141.662,81.0282 L160.332,81.0282 L160.332,114.36 L141.662,114.36 L141.662,237.865 L108.857,237.865 L108.857,114.36 L84.1431,114.36 L84.1432,231.898 Z" id="Shape"></path>
        </g>
    </g>
</svg>