<svg width="72" height="102" viewBox="0 0 72 102" fill="none" xmlns="http://www.w3.org/2000/svg">
<path d="M38.9104 44.6975H33.3036L33.3036 86.526C33.3036 94.5869 28.3837 101.32 18.6726 101.15C13.8901 101.066 10.2595 99.4731 7.80624 96.915L5.17355 94.2823C2.40177 91.6241 1 87.8107 1 83.526V82.0371H12.4666L15.4666 85.0371V86.526C15.4666 86.6148 15.4699 86.7134 15.478 86.8193C15.5415 86.8219 15.6064 86.8232 15.6726 86.8232C18.4378 86.8232 18.866 84.5399 18.8609 83.526L18.8788 29.8357H38.9104V15.6271C38.9104 7.56616 43.8302 0.833027 53.5414 1.00316C58.1842 1.08448 61.7412 2.58808 64.1896 5.01626L64.1908 5.01502L67.2042 8.02839L67.203 8.02958C69.867 10.6797 71.2139 14.427 71.2139 18.6271V20.1161H59.7475L56.7475 17.1161V15.6271C56.7475 15.5382 56.7441 15.4396 56.7361 15.3336C56.6725 15.331 56.6077 15.3297 56.5414 15.3297C53.7763 15.3297 53.3479 17.6133 53.3531 18.6271L53.3389 29.8357L56.837 29.8357L59.837 32.8357V44.6975H53.335V88.6495H41.9104L38.9104 85.6495V44.6975Z" fill="black"/>
<path d="M24.65 9.06107C21.0303 9.06107 18.095 12.0788 18.095 15.8025C18.095 17.7951 18.9359 19.5855 20.2725 20.8194L22.8955 23.4423C24.09 24.7361 25.7786 25.5427 27.65 25.5427C31.2696 25.5427 34.2038 22.525 34.2038 18.8025C34.2038 16.8514 33.3981 15.0938 32.1101 13.8628L29.3235 11.0761C28.1346 9.83238 26.4799 9.06107 24.65 9.06107Z" fill="black"/>
<path d="M38.9104 44.6975H33.3036L33.3036 86.526C33.3036 94.5869 28.3837 101.32 18.6726 101.15C13.8901 101.066 10.2595 99.4731 7.80624 96.915L5.17355 94.2823C2.40177 91.6241 1 87.8107 1 83.526V82.0371H12.4666L15.4666 85.0371V86.526C15.4666 86.6148 15.4699 86.7134 15.478 86.8193C15.5415 86.8219 15.6064 86.8232 15.6726 86.8232C18.4378 86.8232 18.866 84.5399 18.8609 83.526L18.8788 29.8357H38.9104V15.6271C38.9104 7.56616 43.8302 0.833027 53.5414 1.00316C58.1842 1.08448 61.7412 2.58808 64.1896 5.01626L64.1908 5.01502L67.2042 8.02839L67.203 8.02958C69.867 10.6797 71.2139 14.427 71.2139 18.6271V20.1161H59.7475L56.7475 17.1161V15.6271C56.7475 15.5382 56.7441 15.4396 56.7361 15.3336C56.6725 15.331 56.6077 15.3297 56.5414 15.3297C53.7763 15.3297 53.3479 17.6133 53.3531 18.6271L53.3389 29.8357L56.837 29.8357L59.837 32.8357V44.6975H53.335V88.6495H41.9104L38.9104 85.6495V44.6975Z" stroke="black" stroke-width="1.8" stroke-linejoin="round"/>
<path d="M24.65 9.06107C21.0303 9.06107 18.095 12.0788 18.095 15.8025C18.095 17.7951 18.9359 19.5855 20.2725 20.8194L22.8955 23.4423C24.09 24.7361 25.7786 25.5427 27.65 25.5427C31.2696 25.5427 34.2038 22.525 34.2038 18.8025C34.2038 16.8514 33.3981 15.0938 32.1101 13.8628L29.3235 11.0761C28.1346 9.83238 26.4799 9.06107 24.65 9.06107Z" stroke="black" stroke-width="1.8" stroke-linejoin="round"/>
<path fill-rule="evenodd" clip-rule="evenodd" d="M18.095 15.8025C18.095 12.0788 21.0303 9.06107 24.65 9.06107C28.2699 9.06107 31.2038 12.0793 31.2038 15.8025C31.2038 19.525 28.2696 22.5427 24.65 22.5427C21.0307 22.5427 18.095 19.5256 18.095 15.8025ZM30.3036 83.526C30.3036 91.5869 25.3837 98.32 15.6726 98.1499C5.96136 97.9798 1 91.5869 1 83.526V82.0371H12.4666V83.526C12.4666 84.5399 12.9073 86.8232 15.6726 86.8232C18.4378 86.8232 18.866 84.5399 18.8609 83.526L18.8788 29.8357H38.9104V15.6271C38.9104 7.56616 43.8302 0.833028 53.5414 1.00316C63.2526 1.17328 68.2139 7.56616 68.2139 15.6271V17.1161H56.7475V15.6271C56.7475 14.6133 56.3066 12.3297 53.5414 12.3297C50.7763 12.3297 50.3479 14.6133 50.3531 15.6271L50.335 29.8357H56.837V41.6975H50.335V85.6495H38.9104V41.6975H30.3036L30.3036 83.526Z" fill="white" stroke="black" stroke-width="1.8" stroke-linejoin="round"/>
</svg>
