<?xml version="1.0" encoding="UTF-8"?>
<svg width="330px" height="330px" viewBox="0 0 330 330" version="1.1" xmlns="http://www.w3.org/2000/svg" xmlns:xlink="http://www.w3.org/1999/xlink">
    <!-- Generator: Sketch 52.2 (67145) - http://www.bohemiancoding.com/sketch -->
    <title>Slice</title>
    <desc>Created with Sketch.</desc>
    <defs>
        <filter x="-7.0%" y="-4.9%" width="114.0%" height="109.9%" filterUnits="objectBoundingBox" id="filter-1">
            <feOffset dx="5" dy="5" in="SourceAlpha" result="shadowOffsetOuter1"></feOffset>
            <feColorMatrix values="0 0 0 0 0   0 0 0 0 0   0 0 0 0 0  0 0 0 1 0" type="matrix" in="shadowOffsetOuter1" result="shadowMatrixOuter1"></feColorMatrix>
            <feMerge>
                <feMergeNode in="shadowMatrixOuter1"></feMergeNode>
                <feMergeNode in="SourceGraphic"></feMergeNode>
            </feMerge>
        </filter>
    </defs>
    <g id="Page-1" stroke="none" stroke-width="1" fill="none" fill-rule="evenodd">
        <g id="Union-2" filter="url(#filter-1)" transform="translate(68.000000, 28.000000)">
            <path d="M67.9093,60.5349 C57.5166,60.5349 49.0871,52.0568 49.0871,41.595 C49.0871,31.1314 57.5156,22.6516 67.9093,22.6516 C78.3037,22.6516 86.7281,31.1329 86.7281,41.595 C86.7281,52.0553 78.3027,60.5349 67.9093,60.5349 Z" id="Path" fill="#FFFFFF"></path>
            <path d="M42.1312,272.991 C70.0161,273.469 84.1432,254.549 84.1432,231.898 L84.1431,114.36 L108.857,114.36 L108.857,237.865 L141.662,237.865 L141.662,114.36 L160.332,114.36 L160.332,81.0282 L141.662,81.0282 L141.714,41.1022 C141.699,38.2534 142.929,31.8365 150.869,31.8365 C158.809,31.8365 160.075,38.2534 160.075,41.1022 L160.075,45.2861 L193,45.2861 L193,41.1022 C193,18.4509 178.754,0.486908 150.869,0.00886563 C122.984,-0.469191 108.857,18.4509 108.857,41.1022 L108.857,81.0282 L51.3376,81.0282 L51.2864,231.898 C51.3009,234.747 50.0714,241.163 42.1312,241.163 C34.191,241.163 32.9254,234.747 32.9254,231.898 L32.9254,227.714 L0,227.714 L0,231.898 C0,254.549 14.2462,272.513 42.1312,272.991 Z" id="Path" fill="#FFFFFF"></path>
            <path d="M49.0871,41.595 C49.0871,52.0568 57.5166,60.5349 67.9093,60.5349 C78.3027,60.5349 86.7281,52.0553 86.7281,41.595 C86.7281,31.1329 78.3037,22.6516 67.9093,22.6516 C57.5156,22.6516 49.0871,31.1314 49.0871,41.595 Z M84.1432,231.898 C84.1432,254.549 70.0161,273.469 42.1312,272.991 C14.2462,272.513 0,254.549 0,231.898 L0,227.714 L32.9254,227.714 L32.9254,231.898 C32.9254,234.747 34.191,241.163 42.1312,241.163 C50.0714,241.163 51.3009,234.747 51.2864,231.898 L51.3376,81.0282 L108.857,81.0282 L108.857,41.1022 C108.857,18.4509 122.984,-0.469191 150.869,0.00886563 C178.754,0.486908 193,18.4509 193,41.1022 L193,45.2861 L160.075,45.2861 L160.075,41.1022 C160.075,38.2534 158.809,31.8365 150.869,31.8365 C142.929,31.8365 141.699,38.2534 141.714,41.1022 L141.662,81.0282 L160.332,81.0282 L160.332,114.36 L141.662,114.36 L141.662,237.865 L108.857,237.865 L108.857,114.36 L84.1431,114.36 L84.1432,231.898 Z" id="Shape" stroke="#000000" stroke-width="5" stroke-linejoin="round"></path>
        </g>
    </g>
</svg>