<?xml version="1.0" encoding="UTF-8"?>
<svg width="358px" height="512px" viewBox="0 0 358 512" version="1.1" xmlns="http://www.w3.org/2000/svg" xmlns:xlink="http://www.w3.org/1999/xlink">
    <!-- Generator: Sketch 46.2 (44496) - http://www.bohemiancoding.com/sketch -->
    <title>Logo V3</title>
    <desc>Created with Sketch.</desc>
    <defs></defs>
    <g id="Symbols" stroke="none" stroke-width="1" fill="none" fill-rule="evenodd">
        <g id="Logo-V3" fill="#000000">
            <path d="M144.755316,191.313258 L144.755316,442.054231 C144.755316,461.663849 137.652727,478.185091 123.447334,491.618451 C109.396348,505.206218 92.4118936,512 72.4934625,512 C52.5750313,512 35.5905774,505.206218 21.5395911,491.618451 C7.1797919,478.185091 -5.68434189e-14,461.663849 -5.68434189e-14,442.054231 L44.4688332,442.054231 C44.4688332,449.774553 47.2481075,456.336729 52.8067394,461.740954 C58.2109649,467.299586 64.7731403,470.07886 72.4934625,470.07886 C80.2137846,470.07886 86.8531621,467.299586 92.411794,461.740954 C97.8160195,456.336729 100.518092,449.774553 100.518092,442.054231 L100.518092,190.612585 L100.518092,146.463372 L212.806677,146.463372 L212.806677,69.9457689 C212.806677,50.3361506 219.909266,33.8149091 234.114659,20.3815486 C248.165645,6.79378158 265.150099,0 285.06853,0 C304.986962,0 321.971416,6.79378158 336.022402,20.3815486 C350.382201,33.8149091 357.561993,50.3361506 357.561993,69.9457689 L313.09316,69.9457689 C313.09316,62.2254467 310.313885,55.6632714 304.755254,50.2590459 C299.351028,44.7004139 292.788853,41.9211396 285.06853,41.9211396 C277.348208,41.9211396 270.708831,44.7004139 265.150199,50.2590459 C259.745973,55.6632714 257.043901,62.2254467 257.043901,69.9457689 L257.043901,147.164045 L304.755254,147.164045 L304.755254,191.313258 L257.043901,191.313258 L257.043901,442.754904 L212.806677,442.754904 L212.806677,191.313258 L144.755316,191.313258 Z M122.968206,97.7566722 C108.138466,97.7566722 96.1165876,85.7347933 96.1165876,70.9050541 C96.1165876,56.0753149 108.138466,44.053436 122.968206,44.053436 C137.797945,44.053436 149.819824,56.0753149 149.819824,70.9050541 C149.819824,85.7347933 137.797945,97.7566722 122.968206,97.7566722 Z" id="Shortenened-f-and-j"></path>
        </g>
    </g>
</svg>