<svg width="398" height="558" viewBox="0 0 398 558" version="1.1" xmlns="http://www.w3.org/2000/svg" xmlns:xlink="http://www.w3.org/1999/xlink">
<g id="Union" fill="none" filter="url(#dropShadow)">
<path d="M 67.9093 60.5349C 57.5166 60.5349 49.0871 52.0568 49.0871 41.595C 49.0871 31.1314 57.5156 22.6516 67.9093 22.6516C 78.3037 22.6516 86.7281 31.1329 86.7281 41.595C 86.7281 52.0553 78.3027 60.5349 67.9093 60.5349Z" transform="translate(6 6) scale(2)" fill="white"/>
<path d="M 42.1312 272.991C 70.0161 273.469 84.1432 254.549 84.1432 231.898L 84.1431 114.36L 108.857 114.36L 108.857 237.865L 141.662 237.865L 141.662 114.36L 160.332 114.36L 160.332 81.0282L 141.662 81.0282L 141.714 41.1022C 141.699 38.2534 142.929 31.8365 150.869 31.8365C 158.809 31.8365 160.075 38.2534 160.075 41.1022L 160.075 45.2861L 193 45.2861L 193 41.1022C 193 18.4509 178.754 0.486908 150.869 0.00886563C 122.984 -0.469191 108.857 18.4509 108.857 41.1022L 108.857 81.0282L 51.3376 81.0282L 51.2864 231.898C 51.3009 234.747 50.0714 241.163 42.1312 241.163C 34.191 241.163 32.9254 234.747 32.9254 231.898L 32.9254 227.714L 0 227.714L 0 231.898C 0 254.549 14.2462 272.513 42.1312 272.991Z" transform="translate(6 6) scale(2)" fill="white"/>
<path d="M 49.0871 41.595C 49.0871 52.0568 57.5166 60.5349 67.9093 60.5349C 78.3027 60.5349 86.7281 52.0553 86.7281 41.595C 86.7281 31.1329 78.3037 22.6516 67.9093 22.6516C 57.5156 22.6516 49.0871 31.1314 49.0871 41.595ZM 84.1432 231.898C 84.1432 254.549 70.0161 273.469 42.1312 272.991C 14.2462 272.513 0 254.549 0 231.898L 0 227.714L 32.9254 227.714L 32.9254 231.898C 32.9254 234.747 34.191 241.163 42.1312 241.163C 50.0714 241.163 51.3009 234.747 51.2864 231.898L 51.3376 81.0282L 108.857 81.0282L 108.857 41.1022C 108.857 18.4509 122.984 -0.469191 150.869 0.00886563C 178.754 0.486908 193 18.4509 193 41.1022L 193 45.2861L 160.075 45.2861L 160.075 41.1022C 160.075 38.2534 158.809 31.8365 150.869 31.8365C 142.929 31.8365 141.699 38.2534 141.714 41.1022L 141.662 81.0282L 160.332 81.0282L 160.332 114.36L 141.662 114.36L 141.662 237.865L 108.857 237.865L 108.857 114.36L 84.1431 114.36L 84.1432 231.898Z" stroke-width="5" stroke-linejoin="round" transform="translate(6 6) scale(2)" stroke="black"/>
</g>
 <filter id="dropShadow">
    <feGaussianBlur in="SourceAlpha" stdDeviation="0" />
    <feOffset dx="7" dy="7" />
    <feMerge>
        <feMergeNode />
        <feMergeNode in="SourceGraphic" />
    </feMerge>
  </filter>
</svg>

