<svg width="215" height="278" viewBox="0 0 215 278" fill="none" xmlns="http://www.w3.org/2000/svg">
<path fill-rule="evenodd" clip-rule="evenodd" d="M163.412 0.00921764C148.862 -0.240218 137.645 4.58771 130.08 12.6742C122.549 20.7253 118.857 31.7713 118.857 43.6022V78.0282H53.8376C52.4572 78.0282 51.3381 79.1469 51.3376 80.5273L51.2864 228.397L51.2865 228.41C51.2923 229.558 51.0321 231.322 50.1073 232.719C49.2926 233.949 47.8001 235.163 44.6312 235.163C44.4147 235.163 44.206 235.158 44.0047 235.147C43.888 234.539 43.843 233.968 43.843 233.5V229.316C43.843 227.935 42.7238 226.816 41.343 226.816H37.9254V224.214C37.9254 222.833 36.8061 221.714 35.4254 221.714H2.5C1.11929 221.714 0 222.833 0 224.214V228.398C0 240.244 3.73149 251.057 11.3004 258.986C13.2756 261.055 15.4967 262.911 17.9576 264.53C25.5243 272.022 36.4765 276.535 50.4994 276.775C65.0491 277.025 76.2664 272.197 83.8308 264.11C91.3622 256.059 95.0543 245.013 95.0543 233.182L95.0543 121.145H118.857V230.5C118.857 231.881 119.976 233 121.357 233H124.768V235.284C124.768 236.665 125.887 237.784 127.268 237.784H160.073C161.454 237.784 162.573 236.665 162.573 235.284V121.145H178.743C180.124 121.145 181.243 120.025 181.243 118.645V85.3127C181.243 83.932 180.124 82.8127 178.743 82.8127H175.332V80.5282C175.332 79.1475 174.212 78.0282 172.832 78.0282H162.585L162.625 48.3902L162.625 48.3741C162.619 47.2261 162.879 45.4623 163.804 44.0658C164.618 42.8354 166.111 41.621 169.28 41.621C169.357 41.621 169.433 41.6217 169.508 41.6231C169.608 41.625 169.706 41.6281 169.803 41.6325C169.712 41.1911 169.584 40.7327 169.406 40.2829C169.913 41.456 170.075 42.7148 170.075 43.6022V47.7861C170.075 49.1668 171.194 50.2861 172.575 50.2861H175.986V52.5706C175.986 53.9513 177.105 55.0706 178.486 55.0706H211.411C212.792 55.0706 213.911 53.9513 213.911 52.5706V48.3867C213.911 36.5403 210.18 25.7275 202.611 17.7988C200.735 15.8335 198.637 14.0601 196.322 12.5L196.42 12.6003L196.468 12.6505C196.491 12.6743 196.514 12.6981 196.537 12.722L196.611 12.7988C200.003 16.3522 202.624 20.4846 204.484 25.0299C202.63 20.5695 200.038 16.5114 196.7 13.0143C189.114 5.06842 177.903 0.257646 163.412 0.00921764ZM123.857 43.6022C123.857 32.7818 127.228 23.0421 133.732 16.0899C140.202 9.17294 149.991 4.77986 163.326 5.00849C176.72 5.2381 186.574 9.64835 193.083 16.4668C199.608 23.3024 203 32.7973 203 43.6022V45.2861H175.075V43.6022C175.075 41.8997 174.711 39.033 173.028 36.5128C171.237 33.8294 168.139 31.8365 163.369 31.8365C158.598 31.8365 155.505 33.8305 153.724 36.5208C152.055 39.0406 151.706 41.9043 151.714 43.6062L151.662 80.5247C151.661 81.1884 151.924 81.8251 152.393 82.2947C152.862 82.7643 153.499 83.0282 154.162 83.0282H170.332V111.36H154.162C152.782 111.36 151.662 112.479 151.662 113.86V228H123.857V113.86C123.857 112.479 122.738 111.36 121.357 111.36H86.6431C85.9801 111.36 85.3442 111.624 84.8754 112.092C84.4065 112.561 84.1431 113.197 84.1431 113.86L84.1432 228.398C84.1432 239.218 80.7717 248.958 74.2683 255.91C67.7979 262.827 58.0093 267.22 44.674 266.992C31.2799 266.762 21.4261 262.352 14.9171 255.533C8.39163 248.698 5 239.203 5 228.398V226.714H32.9254V228.398C32.9254 230.1 33.2888 232.967 34.9716 235.487C36.7633 238.171 39.8606 240.163 44.6312 240.163C49.4024 240.163 52.4948 238.169 54.2762 235.479C55.9454 232.958 56.2941 230.094 56.2864 228.392L56.3368 83.0282H121.357C122.738 83.0282 123.857 81.9089 123.857 80.5282V43.6022ZM70.4093 19.6516C58.6201 19.6516 49.0871 29.2656 49.0871 41.095C49.0871 49.334 53.7132 56.4977 60.5046 60.0865C64.4023 64.4623 70.0166 67.3194 76.3204 67.3194C88.1096 67.3194 97.6392 57.7054 97.6392 45.8795C97.6392 38.1361 93.3836 31.6774 87.2411 27.9334C83.3431 22.896 77.2579 19.6516 70.4093 19.6516ZM54.0871 41.095C54.0871 31.9972 61.4112 24.6516 70.4093 24.6516C79.4074 24.6516 86.7281 31.9979 86.7281 41.095C86.7281 50.1898 79.4069 57.5349 70.4093 57.5349C61.4117 57.5349 54.0871 50.1905 54.0871 41.095Z" transform="translate(0.5 0.500015)" fill="black"/>
</svg>
