<svg width="1013" height="968" viewBox="0 0 1013 968" fill="none" xmlns="http://www.w3.org/2000/svg">
<path d="M779.5 966L586 399.5L840.5 452.5C840.5 467.667 869 498 900.5 541C934.494 587.404 940.56 581.5 917.5 621.5C890.5 668.333 844 711 796.5 818.5C772.736 872.282 772.5 937.833 779.5 966Z" fill="#FF3939" stroke="black" stroke-width="10"/>
<path d="M230.768 965.5L424.268 399L169.768 452C169.768 467.167 141.268 497.5 109.768 540.5C75.7745 586.904 69.708 581 92.7685 621C119.768 667.833 166.268 710.5 213.768 818C237.533 871.782 237.768 937.333 230.768 965.5Z" fill="#FF3939" stroke="black" stroke-width="10"/>
<path d="M91.0382 5C215.538 4.99997 351.038 127.833 410.538 161.5C438.038 236.5 462.408 393.205 405.608 411.605C334.608 434.605 195.538 472 91.0381 472C-13.4619 472 -33.4618 5.00003 91.0382 5Z" fill="#FF3939" stroke="black" stroke-width="10"/>
<path d="M921.092 5.99997C796.592 5.99994 661.092 128.833 601.592 162.5C574.092 237.5 549.722 394.205 606.522 412.605C677.522 435.605 816.592 473 921.092 473C1025.59 473 1045.59 6 921.092 5.99997Z" fill="#FF3939" stroke="black" stroke-width="10"/>
<path d="M408.5 153H565.5C623.9 153 626 165.5 626 209C619 261.667 604.4 371.3 602 388.5C599.6 405.7 589 408.333 584 407.5H438C412.8 407.5 404.167 388.167 403 378.5C396.667 317.667 384 191.4 384 173C384 154.6 400.333 152 408.5 153Z" fill="#FF3939" stroke="black" stroke-width="10"/>
</svg>
