<?xml version="1.0" encoding="UTF-8"?>
<svg width="64px" height="64px" viewBox="0 0 64 64" version="1.1" xmlns="http://www.w3.org/2000/svg" xmlns:xlink="http://www.w3.org/1999/xlink">
    <title>Artboard Copy</title>
    <g id="Artboard-Copy" stroke="none" stroke-width="1" fill="none" fill-rule="evenodd">
        <g id="Group" transform="translate(-0.000000, 0.000000)">
            <path d="M19.229139,-7.76880231e-16 L44.770861,7.76880231e-16 C51.4572515,-4.51389787e-16 53.8818983,0.696192084 56.3263428,2.00349528 C58.7707872,3.31079847 60.6892015,5.22921278 61.9965047,7.67365722 C63.3038079,10.1181017 64,12.5427485 64,19.229139 L64,44.770861 C64,51.4572515 63.3038079,53.8818983 61.9965047,56.3263428 C60.6892015,58.7707872 58.7707872,60.6892015 56.3263428,61.9965047 C53.8818983,63.3038079 51.4572515,64 44.770861,64 L19.229139,64 C12.5427485,64 10.1181017,63.3038079 7.67365722,61.9965047 C5.22921278,60.6892015 3.31079847,58.7707872 2.00349528,56.3263428 C0.696192084,53.8818983 3.00926524e-16,51.4572515 -5.17920154e-16,44.770861 L5.17920154e-16,19.229139 C-3.00926524e-16,12.5427485 0.696192084,10.1181017 2.00349528,7.67365722 C3.31079847,5.22921278 5.22921278,3.31079847 7.67365722,2.00349528 C10.1181017,0.696192084 12.5427485,4.51389787e-16 19.229139,-7.76880231e-16 Z" id="Rectangle" fill="#FFFFFF"></path>
            <g id="V7.2" transform="translate(19.393333, 5.160000)" fill="#000000" fill-rule="nonzero">
                <path d="M22.5521527,0.09 C23.4154753,0.09 24.2787979,0.126122312 25.1421206,0.198366935 L25.1421206,5.29139617 L24.9882713,5.2916181 L24.9882713,5.2916181 L24.6897723,5.29175335 C20.1083988,5.29615391 19.9667068,5.43843883 19.9623246,10.0389846 L19.9621848,10.4932258 L25.1421206,10.4930091 L25.1421206,10.4932258 L19.9621848,10.4932258 L19.9621848,12.2270968 L23.4154753,12.2270968 L23.4154753,17.4287097 L19.9621848,17.4287097 L19.9621848,41.7029032 L14.7822489,41.7029032 L14.7822489,17.4287097 L10.4656358,17.4287097 L10.4656358,45.1706452 C10.4656358,50.3722581 7.87566786,53.84 2.69573205,53.84 C1.83240942,53.84 0.969086781,53.8038776 0.105764146,53.7316331 L0.105764146,48.6383871 C0.157563504,48.6383871 0.208844869,48.6383871 0.25961342,48.6383819 L0.558112401,48.6382467 C5.13948591,48.6338461 5.28117787,48.4915612 5.2855601,43.8910154 L5.28569478,43.5912673 L5.28569478,43.5912673 L5.28569996,43.4367742 L5.28583982,16.9744684 C5.29022204,12.3739227 5.43191401,12.2316378 10.0132875,12.2272372 L14.7822489,12.2270968 L14.7822489,10.4932258 L14.7822489,10.4932258 L14.7822489,8.75935484 C14.7822489,3.55774194 17.3722169,0.09 22.5521527,0.09 Z M7.87566786,2.25733871 C9.42526761,2.25733871 10.6814664,3.51879449 10.6814664,5.07487903 L10.6814664,6.37528226 C10.6814664,7.9313668 9.42526761,9.19282258 7.87566786,9.19282258 C6.32606812,9.19282258 5.0698693,7.9313668 5.0698693,6.37528226 L5.0698693,5.07487903 C5.0698693,3.51879449 6.32606812,2.25733871 7.87566786,2.25733871 Z" id="Combined-Shape"></path>
            </g>
        </g>
    </g>
</svg>